{
	"asset":{
		"generator":"Khronos glTF Blender I/O v4.0.44",
		"version":"2.0"
	},
	"scene":0,
	"scenes":[
		{
			"name":"Scene",
			"nodes":[
				0,
				1,
				2,
				3,
				4
			]
		}
	],
	"nodes":[
		{
			"mesh":0,
			"name":"Cylinder.002",
			"translation":[
				-1.2384032011032104,
				0.624330461025238,
				0.919376790523529
			]
		},
		{
			"mesh":1,
			"name":"Cylinder.004",
			"translation":[
				-0.6373698711395264,
				0.9483274817466736,
				0.919376790523529
			]
		},
		{
			"mesh":2,
			"name":"Cylinder.005",
			"scale":[
				0.7525462508201599,
				0.92279052734375,
				0.92279052734375
			],
			"translation":[
				-0.02333783358335495,
				2.5837326049804688,
				0.9185243844985962
			]
		},
		{
			"mesh":3,
			"name":"Cylinder.007",
			"scale":[
				0.7525462508201599,
				0.92279052734375,
				0.92279052734375
			],
			"translation":[
				0.8025762438774109,
				2.5837326049804688,
				0.9185243844985962
			]
		},
		{
			"mesh":4,
			"name":"Cylinder.010",
			"scale":[
				1,
				1,
				0.6059972047805786
			],
			"translation":[
				1.8228099346160889,
				4.029327392578125,
				0.9265972971916199
			]
		}
	],
	"materials":[
		{
			"doubleSided":true,
			"name":"Stainless Steel.001",
			"pbrMetallicRoughness":{}
		},
		{
			"doubleSided":true,
			"name":"Stainless Steel.002",
			"pbrMetallicRoughness":{}
		},
		{
			"doubleSided":true,
			"name":"Stainless Steel.001",
			"pbrMetallicRoughness":{}
		}
	],
	"meshes":[
		{
			"name":"Cylinder.002",
			"primitives":[
				{
					"attributes":{
						"COLOR_0":0,
						"POSITION":1,
						"NORMAL":2,
						"TEXCOORD_0":3
					},
					"indices":4,
					"material":0
				},
				{
					"attributes":{
						"COLOR_0":5,
						"POSITION":6,
						"NORMAL":7,
						"TEXCOORD_0":8
					},
					"indices":9,
					"material":1
				}
			]
		},
		{
			"name":"Cylinder.005",
			"primitives":[
				{
					"attributes":{
						"COLOR_0":10,
						"POSITION":11,
						"NORMAL":12,
						"TEXCOORD_0":13
					},
					"indices":14,
					"material":0
				},
				{
					"attributes":{
						"COLOR_0":15,
						"POSITION":16,
						"NORMAL":17,
						"TEXCOORD_0":18
					},
					"indices":19,
					"material":1
				}
			]
		},
		{
			"name":"Cylinder.006",
			"primitives":[
				{
					"attributes":{
						"POSITION":20,
						"NORMAL":21,
						"TEXCOORD_0":22
					},
					"indices":23,
					"material":2
				}
			]
		},
		{
			"name":"Cylinder.009",
			"primitives":[
				{
					"attributes":{
						"POSITION":24,
						"NORMAL":25,
						"TEXCOORD_0":26
					},
					"indices":27,
					"material":2
				}
			]
		},
		{
			"name":"Cylinder.013",
			"primitives":[
				{
					"attributes":{
						"POSITION":28,
						"NORMAL":29,
						"TEXCOORD_0":30
					},
					"indices":31,
					"material":2
				}
			]
		}
	],
	"accessors":[
		{
			"bufferView":0,
			"componentType":5123,
			"count":9143,
			"normalized":true,
			"type":"VEC4"
		},
		{
			"bufferView":1,
			"componentType":5126,
			"count":9143,
			"max":[
				0.146372988820076,
				3.104583978652954,
				0.014019670896232128
			],
			"min":[
				-0.146372988820076,
				-0.02392423525452614,
				0
			],
			"type":"VEC3"
		},
		{
			"bufferView":2,
			"componentType":5126,
			"count":9143,
			"type":"VEC3"
		},
		{
			"bufferView":3,
			"componentType":5126,
			"count":9143,
			"type":"VEC2"
		},
		{
			"bufferView":4,
			"componentType":5123,
			"count":47634,
			"type":"SCALAR"
		},
		{
			"bufferView":5,
			"componentType":5123,
			"count":4768,
			"normalized":true,
			"type":"VEC4"
		},
		{
			"bufferView":6,
			"componentType":5126,
			"count":4768,
			"max":[
				0.14266857504844666,
				3.1052656173706055,
				0.014019670896232128
			],
			"min":[
				-0.146372988820076,
				-0.023924237117171288,
				0
			],
			"type":"VEC3"
		},
		{
			"bufferView":7,
			"componentType":5126,
			"count":4768,
			"type":"VEC3"
		},
		{
			"bufferView":8,
			"componentType":5126,
			"count":4768,
			"type":"VEC2"
		},
		{
			"bufferView":9,
			"componentType":5123,
			"count":24078,
			"type":"SCALAR"
		},
		{
			"bufferView":10,
			"componentType":5123,
			"count":17061,
			"normalized":true,
			"type":"VEC4"
		},
		{
			"bufferView":11,
			"componentType":5126,
			"count":17061,
			"max":[
				0.146372988820076,
				2.807473659515381,
				0.014019670896232128
			],
			"min":[
				-0.15879316627979279,
				-0.32489195466041565,
				0
			],
			"type":"VEC3"
		},
		{
			"bufferView":12,
			"componentType":5126,
			"count":17061,
			"type":"VEC3"
		},
		{
			"bufferView":13,
			"componentType":5126,
			"count":17061,
			"type":"VEC2"
		},
		{
			"bufferView":14,
			"componentType":5123,
			"count":90240,
			"type":"SCALAR"
		},
		{
			"bufferView":15,
			"componentType":5123,
			"count":5581,
			"normalized":true,
			"type":"VEC4"
		},
		{
			"bufferView":16,
			"componentType":5126,
			"count":5581,
			"max":[
				0.14593952894210815,
				2.8081552982330322,
				0.014019670896232128
			],
			"min":[
				-0.16476444900035858,
				-0.13556982576847076,
				0
			],
			"type":"VEC3"
		},
		{
			"bufferView":17,
			"componentType":5126,
			"count":5581,
			"type":"VEC3"
		},
		{
			"bufferView":18,
			"componentType":5126,
			"count":5581,
			"type":"VEC2"
		},
		{
			"bufferView":19,
			"componentType":5123,
			"count":28800,
			"type":"SCALAR"
		},
		{
			"bufferView":20,
			"componentType":5126,
			"count":664,
			"max":[
				0.25631293654441833,
				1.9600954055786133,
				0.01813945546746254
			],
			"min":[
				-0.2543119192123413,
				-0.9742047786712646,
				-0.0006427178159356117
			],
			"type":"VEC3"
		},
		{
			"bufferView":21,
			"componentType":5126,
			"count":664,
			"type":"VEC3"
		},
		{
			"bufferView":22,
			"componentType":5126,
			"count":664,
			"type":"VEC2"
		},
		{
			"bufferView":23,
			"componentType":5123,
			"count":1140,
			"type":"SCALAR"
		},
		{
			"bufferView":24,
			"componentType":5126,
			"count":546,
			"max":[
				0.25631293654441833,
				1.9658762216567993,
				0.17223310470581055
			],
			"min":[
				-0.2543119192123413,
				-0.9738128781318665,
				-0.0006427178159356117
			],
			"type":"VEC3"
		},
		{
			"bufferView":25,
			"componentType":5126,
			"count":546,
			"type":"VEC3"
		},
		{
			"bufferView":26,
			"componentType":5126,
			"count":546,
			"type":"VEC2"
		},
		{
			"bufferView":27,
			"componentType":5123,
			"count":1596,
			"type":"SCALAR"
		},
		{
			"bufferView":28,
			"componentType":5126,
			"count":168,
			"max":[
				0.14443115890026093,
				0.1847226619720459,
				0.007700994145125151
			],
			"min":[
				-0.14443114399909973,
				-1.7301151752471924,
				-0.007700999267399311
			],
			"type":"VEC3"
		},
		{
			"bufferView":29,
			"componentType":5126,
			"count":168,
			"type":"VEC3"
		},
		{
			"bufferView":30,
			"componentType":5126,
			"count":168,
			"type":"VEC2"
		},
		{
			"bufferView":31,
			"componentType":5123,
			"count":468,
			"type":"SCALAR"
		}
	],
	"bufferViews":[
		{
			"buffer":0,
			"byteLength":73144,
			"byteOffset":0,
			"target":34962
		},
		{
			"buffer":0,
			"byteLength":109716,
			"byteOffset":73144,
			"target":34962
		},
		{
			"buffer":0,
			"byteLength":109716,
			"byteOffset":182860,
			"target":34962
		},
		{
			"buffer":0,
			"byteLength":73144,
			"byteOffset":292576,
			"target":34962
		},
		{
			"buffer":0,
			"byteLength":95268,
			"byteOffset":365720,
			"target":34963
		},
		{
			"buffer":0,
			"byteLength":38144,
			"byteOffset":460988,
			"target":34962
		},
		{
			"buffer":0,
			"byteLength":57216,
			"byteOffset":499132,
			"target":34962
		},
		{
			"buffer":0,
			"byteLength":57216,
			"byteOffset":556348,
			"target":34962
		},
		{
			"buffer":0,
			"byteLength":38144,
			"byteOffset":613564,
			"target":34962
		},
		{
			"buffer":0,
			"byteLength":48156,
			"byteOffset":651708,
			"target":34963
		},
		{
			"buffer":0,
			"byteLength":136488,
			"byteOffset":699864,
			"target":34962
		},
		{
			"buffer":0,
			"byteLength":204732,
			"byteOffset":836352,
			"target":34962
		},
		{
			"buffer":0,
			"byteLength":204732,
			"byteOffset":1041084,
			"target":34962
		},
		{
			"buffer":0,
			"byteLength":136488,
			"byteOffset":1245816,
			"target":34962
		},
		{
			"buffer":0,
			"byteLength":180480,
			"byteOffset":1382304,
			"target":34963
		},
		{
			"buffer":0,
			"byteLength":44648,
			"byteOffset":1562784,
			"target":34962
		},
		{
			"buffer":0,
			"byteLength":66972,
			"byteOffset":1607432,
			"target":34962
		},
		{
			"buffer":0,
			"byteLength":66972,
			"byteOffset":1674404,
			"target":34962
		},
		{
			"buffer":0,
			"byteLength":44648,
			"byteOffset":1741376,
			"target":34962
		},
		{
			"buffer":0,
			"byteLength":57600,
			"byteOffset":1786024,
			"target":34963
		},
		{
			"buffer":0,
			"byteLength":7968,
			"byteOffset":1843624,
			"target":34962
		},
		{
			"buffer":0,
			"byteLength":7968,
			"byteOffset":1851592,
			"target":34962
		},
		{
			"buffer":0,
			"byteLength":5312,
			"byteOffset":1859560,
			"target":34962
		},
		{
			"buffer":0,
			"byteLength":2280,
			"byteOffset":1864872,
			"target":34963
		},
		{
			"buffer":0,
			"byteLength":6552,
			"byteOffset":1867152,
			"target":34962
		},
		{
			"buffer":0,
			"byteLength":6552,
			"byteOffset":1873704,
			"target":34962
		},
		{
			"buffer":0,
			"byteLength":4368,
			"byteOffset":1880256,
			"target":34962
		},
		{
			"buffer":0,
			"byteLength":3192,
			"byteOffset":1884624,
			"target":34963
		},
		{
			"buffer":0,
			"byteLength":2016,
			"byteOffset":1887816,
			"target":34962
		},
		{
			"buffer":0,
			"byteLength":2016,
			"byteOffset":1889832,
			"target":34962
		},
		{
			"buffer":0,
			"byteLength":1344,
			"byteOffset":1891848,
			"target":34962
		},
		{
			"buffer":0,
			"byteLength":936,
			"byteOffset":1893192,
			"target":34963
		}
	],
	"buffers":[
		{
			"byteLength":1894128,
			"uri":"metal.bin"
		}
	]
}
