{
	"asset":{
		"generator":"Khronos glTF Blender I/O v4.0.44",
		"version":"2.0"
	},
	"scene":0,
	"scenes":[
		{
			"name":"Scene",
			"nodes":[
				0
			]
		}
	],
	"nodes":[
		{
			"mesh":0,
			"name":"Cylinder.011",
			"scale":[
				1,
				1.9711027145385742,
				1
			],
			"translation":[
				1.8228094577789307,
				2.325873851776123,
				0.931401252746582
			]
		}
	],
	"materials":[
		{
			"doubleSided":true,
			"name":"Stainless Steel.004",
			"pbrMetallicRoughness":{}
		}
	],
	"meshes":[
		{
			"name":"Cylinder",
			"primitives":[
				{
					"attributes":{
						"POSITION":0,
						"NORMAL":1,
						"TEXCOORD_0":2
					},
					"indices":3,
					"material":0
				}
			]
		}
	],
	"accessors":[
		{
			"bufferView":0,
			"componentType":5126,
			"count":1985,
			"max":[
				0.10343394428491592,
				0.013098576106131077,
				0.10343394428491592
			],
			"min":[
				-0.10343394428491592,
				-0.12162910401821136,
				-0.10343394428491592
			],
			"type":"VEC3"
		},
		{
			"bufferView":1,
			"componentType":5126,
			"count":1985,
			"type":"VEC3"
		},
		{
			"bufferView":2,
			"componentType":5126,
			"count":1985,
			"type":"VEC2"
		},
		{
			"bufferView":3,
			"componentType":5123,
			"count":7284,
			"type":"SCALAR"
		}
	],
	"bufferViews":[
		{
			"buffer":0,
			"byteLength":23820,
			"byteOffset":0,
			"target":34962
		},
		{
			"buffer":0,
			"byteLength":23820,
			"byteOffset":23820,
			"target":34962
		},
		{
			"buffer":0,
			"byteLength":15880,
			"byteOffset":47640,
			"target":34962
		},
		{
			"buffer":0,
			"byteLength":14568,
			"byteOffset":63520,
			"target":34963
		}
	],
	"buffers":[
		{
			"byteLength":78088,
			"uri":"RmetalWhite.bin"
		}
	]
}
