{
	"asset":{
		"generator":"Khronos glTF Blender I/O v4.0.44",
		"version":"2.0"
	},
	"scene":0,
	"scenes":[
		{
			"name":"Scene",
			"nodes":[
				0,
				1,
				2,
				3
			]
		}
	],
	"nodes":[
		{
			"mesh":0,
			"name":"Circle.003",
			"rotation":[
				0.7071066498756409,
				0,
				0,
				0.70710688829422
			],
			"scale":[
				1,
				0.7224040627479553,
				1
			],
			"translation":[
				-1.255842924118042,
				0.9377896189689636,
				0.9077832102775574
			]
		},
		{
			"mesh":1,
			"name":"Circle.001",
			"rotation":[
				0.7071066498756409,
				0,
				0,
				0.70710688829422
			],
			"scale":[
				1,
				0.6991518139839172,
				1
			],
			"translation":[
				-0.6461271047592163,
				1.2617865800857544,
				0.9077832102775574
			]
		},
		{
			"mesh":2,
			"name":"Circle",
			"rotation":[
				0.7071066498756409,
				0,
				0,
				0.70710688829422
			],
			"translation":[
				-0.026178525760769844,
				2.042374610900879,
				0.9301227927207947
			]
		},
		{
			"mesh":3,
			"name":"Circle.002",
			"rotation":[
				0.7071066498756409,
				0,
				0,
				0.70710688829422
			],
			"translation":[
				0.8033195734024048,
				2.042374610900879,
				0.9301227927207947
			]
		}
	],
	"materials":[
		{
			"doubleSided":true,
			"name":"Stainless Steel.003",
			"pbrMetallicRoughness":{}
		}
	],
	"meshes":[
		{
			"name":"Circle.003",
			"primitives":[
				{
					"attributes":{
						"POSITION":0,
						"NORMAL":1,
						"TEXCOORD_0":2
					},
					"indices":3,
					"material":0
				}
			]
		},
		{
			"name":"Circle.004",
			"primitives":[
				{
					"attributes":{
						"POSITION":4,
						"NORMAL":5,
						"TEXCOORD_0":6
					},
					"indices":7,
					"material":0
				}
			]
		},
		{
			"name":"Circle",
			"primitives":[
				{
					"attributes":{
						"POSITION":8,
						"NORMAL":9,
						"TEXCOORD_0":10
					},
					"indices":11,
					"material":0
				}
			]
		},
		{
			"name":"Circle.002",
			"primitives":[
				{
					"attributes":{
						"POSITION":12,
						"NORMAL":13,
						"TEXCOORD_0":14
					},
					"indices":11,
					"material":0
				}
			]
		}
	],
	"accessors":[
		{
			"bufferView":0,
			"componentType":5126,
			"count":894,
			"max":[
				0.031061898916959763,
				0.1947864443063736,
				0.031061915680766106
			],
			"min":[
				-0.031062019988894463,
				-0.14309728145599365,
				-1.0608477592468262
			],
			"type":"VEC3"
		},
		{
			"bufferView":1,
			"componentType":5126,
			"count":894,
			"type":"VEC3"
		},
		{
			"bufferView":2,
			"componentType":5126,
			"count":894,
			"type":"VEC2"
		},
		{
			"bufferView":3,
			"componentType":5123,
			"count":2592,
			"type":"SCALAR"
		},
		{
			"bufferView":4,
			"componentType":5126,
			"count":894,
			"max":[
				0.03148239850997925,
				0.21289682388305664,
				0.031061921268701553
			],
			"min":[
				-0.03152760490775108,
				-0.1623813509941101,
				-1.0608477592468262
			],
			"type":"VEC3"
		},
		{
			"bufferView":5,
			"componentType":5126,
			"count":894,
			"type":"VEC3"
		},
		{
			"bufferView":6,
			"componentType":5126,
			"count":894,
			"type":"VEC2"
		},
		{
			"bufferView":7,
			"componentType":5123,
			"count":2592,
			"type":"SCALAR"
		},
		{
			"bufferView":8,
			"componentType":5126,
			"count":512,
			"max":[
				0.03678591549396515,
				0.10793305933475494,
				0.27778613567352295
			],
			"min":[
				-0.03678591549396515,
				-0.10522536188364029,
				-0.2777860164642334
			],
			"type":"VEC3"
		},
		{
			"bufferView":9,
			"componentType":5126,
			"count":512,
			"type":"VEC3"
		},
		{
			"bufferView":10,
			"componentType":5126,
			"count":512,
			"type":"VEC2"
		},
		{
			"bufferView":11,
			"componentType":5123,
			"count":1488,
			"type":"SCALAR"
		},
		{
			"bufferView":12,
			"componentType":5126,
			"count":512,
			"max":[
				0.03678591549396515,
				0.10793305933475494,
				0.27778613567352295
			],
			"min":[
				-0.03678591549396515,
				-0.10522536188364029,
				-0.2777860164642334
			],
			"type":"VEC3"
		},
		{
			"bufferView":13,
			"componentType":5126,
			"count":512,
			"type":"VEC3"
		},
		{
			"bufferView":14,
			"componentType":5126,
			"count":512,
			"type":"VEC2"
		}
	],
	"bufferViews":[
		{
			"buffer":0,
			"byteLength":10728,
			"byteOffset":0,
			"target":34962
		},
		{
			"buffer":0,
			"byteLength":10728,
			"byteOffset":10728,
			"target":34962
		},
		{
			"buffer":0,
			"byteLength":7152,
			"byteOffset":21456,
			"target":34962
		},
		{
			"buffer":0,
			"byteLength":5184,
			"byteOffset":28608,
			"target":34963
		},
		{
			"buffer":0,
			"byteLength":10728,
			"byteOffset":33792,
			"target":34962
		},
		{
			"buffer":0,
			"byteLength":10728,
			"byteOffset":44520,
			"target":34962
		},
		{
			"buffer":0,
			"byteLength":7152,
			"byteOffset":55248,
			"target":34962
		},
		{
			"buffer":0,
			"byteLength":5184,
			"byteOffset":62400,
			"target":34963
		},
		{
			"buffer":0,
			"byteLength":6144,
			"byteOffset":67584,
			"target":34962
		},
		{
			"buffer":0,
			"byteLength":6144,
			"byteOffset":73728,
			"target":34962
		},
		{
			"buffer":0,
			"byteLength":4096,
			"byteOffset":79872,
			"target":34962
		},
		{
			"buffer":0,
			"byteLength":2976,
			"byteOffset":83968,
			"target":34963
		},
		{
			"buffer":0,
			"byteLength":6144,
			"byteOffset":86944,
			"target":34962
		},
		{
			"buffer":0,
			"byteLength":6144,
			"byteOffset":93088,
			"target":34962
		},
		{
			"buffer":0,
			"byteLength":4096,
			"byteOffset":99232,
			"target":34962
		}
	],
	"buffers":[
		{
			"byteLength":103328,
			"uri":"Rmetal.bin"
		}
	]
}
