{
	"asset":{
		"generator":"Khronos glTF Blender I/O v4.0.44",
		"version":"2.0"
	},
	"extensionsUsed":[
		"KHR_materials_specular",
		"KHR_materials_ior"
	],
	"scene":0,
	"scenes":[
		{
			"name":"Scene",
			"nodes":[
				0
			]
		}
	],
	"nodes":[
		{
			"mesh":0,
			"name":"Cylinder.001",
			"translation":[
				-1.2384032011032104,
				1.3605228662490845,
				0.9263752102851868
			]
		}
	],
	"materials":[
		{
			"doubleSided":true,
			"name":"Wood",
			"pbrMetallicRoughness":{
				"baseColorFactor":[
					0.5248262286186218,
					0.5248262286186218,
					0.5248262286186218,
					1
				],
				"metallicFactor":0
			}
		},
		{
			"doubleSided":true,
			"extensions":{
				"KHR_materials_specular":{
					"specularColorFactor":[
						1.0878593921661377,
						1.0878593921661377,
						1.0878593921661377
					]
				},
				"KHR_materials_ior":{
					"ior":1.4500000476837158
				}
			},
			"name":"Wood.001",
			"pbrMetallicRoughness":{
				"metallicFactor":0
			}
		}
	],
	"meshes":[
		{
			"name":"Cylinder.001",
			"primitives":[
				{
					"attributes":{
						"COLOR_0":0,
						"POSITION":1,
						"NORMAL":2,
						"TEXCOORD_0":3
					},
					"indices":4,
					"material":0
				},
				{
					"attributes":{
						"COLOR_0":5,
						"POSITION":6,
						"NORMAL":7,
						"TEXCOORD_0":8
					},
					"indices":9,
					"material":1
				}
			]
		}
	],
	"accessors":[
		{
			"bufferView":0,
			"componentType":5123,
			"count":530,
			"normalized":true,
			"type":"VEC4"
		},
		{
			"bufferView":1,
			"componentType":5126,
			"count":530,
			"max":[
				0.1460294872522354,
				0.9298648834228516,
				0.12163285911083221
			],
			"min":[
				-0.14601123332977295,
				-0.7610854506492615,
				-0.12163286656141281
			],
			"type":"VEC3"
		},
		{
			"bufferView":2,
			"componentType":5126,
			"count":530,
			"type":"VEC3"
		},
		{
			"bufferView":3,
			"componentType":5126,
			"count":530,
			"type":"VEC2"
		},
		{
			"bufferView":4,
			"componentType":5123,
			"count":1794,
			"type":"SCALAR"
		},
		{
			"bufferView":5,
			"componentType":5123,
			"count":66,
			"normalized":true,
			"type":"VEC4"
		},
		{
			"bufferView":6,
			"componentType":5126,
			"count":66,
			"max":[
				0.14593665301799774,
				0.9298648834228516,
				0.12144067138433456
			],
			"min":[
				-0.14591343700885773,
				0.8868525624275208,
				-0.12144068628549576
			],
			"type":"VEC3"
		},
		{
			"bufferView":7,
			"componentType":5126,
			"count":66,
			"type":"VEC3"
		},
		{
			"bufferView":8,
			"componentType":5126,
			"count":66,
			"type":"VEC2"
		},
		{
			"bufferView":9,
			"componentType":5123,
			"count":186,
			"type":"SCALAR"
		}
	],
	"bufferViews":[
		{
			"buffer":0,
			"byteLength":4240,
			"byteOffset":0,
			"target":34962
		},
		{
			"buffer":0,
			"byteLength":6360,
			"byteOffset":4240,
			"target":34962
		},
		{
			"buffer":0,
			"byteLength":6360,
			"byteOffset":10600,
			"target":34962
		},
		{
			"buffer":0,
			"byteLength":4240,
			"byteOffset":16960,
			"target":34962
		},
		{
			"buffer":0,
			"byteLength":3588,
			"byteOffset":21200,
			"target":34963
		},
		{
			"buffer":0,
			"byteLength":528,
			"byteOffset":24788,
			"target":34962
		},
		{
			"buffer":0,
			"byteLength":792,
			"byteOffset":25316,
			"target":34962
		},
		{
			"buffer":0,
			"byteLength":792,
			"byteOffset":26108,
			"target":34962
		},
		{
			"buffer":0,
			"byteLength":528,
			"byteOffset":26900,
			"target":34962
		},
		{
			"buffer":0,
			"byteLength":372,
			"byteOffset":27428,
			"target":34963
		}
	],
	"buffers":[
		{
			"byteLength":27800,
			"uri":"wood_1.bin"
		}
	]
}
